<svg width="6" height="10" viewBox="0 0 6 10" fill="none" xmlns="http://www.w3.org/2000/svg">
<path d="M2.94122 9.12C2.34122 9.12 1.82122 9.012 1.38122 8.796C0.941219 8.58 0.605219 8.3 0.373219 7.956C0.141219 7.604 0.0172188 7.228 0.0012188 6.828V6.804C0.0012188 6.74 0.0252188 6.688 0.0732188 6.648C0.121219 6.608 0.177219 6.588 0.241219 6.588H0.829219C0.997219 6.588 1.10522 6.676 1.15322 6.852C1.27322 7.284 1.49322 7.608 1.81322 7.824C2.14122 8.032 2.51722 8.136 2.94122 8.136C3.48522 8.136 3.93722 7.972 4.29722 7.644C4.65722 7.308 4.83722 6.848 4.83722 6.264C4.83722 5.728 4.65722 5.304 4.29722 4.992C3.93722 4.672 3.48522 4.512 2.94122 4.512C2.65322 4.512 2.42122 4.548 2.24522 4.62C2.06922 4.692 1.88922 4.796 1.70522 4.932C1.60122 5.012 1.51322 5.072 1.44122 5.112C1.37722 5.144 1.30522 5.16 1.22522 5.16H0.649219C0.577219 5.16 0.513219 5.136 0.457219 5.088C0.401219 5.032 0.377219 4.968 0.385219 4.896L0.757219 0.9C0.781219 0.7 0.881219 0.599999 1.05722 0.599999H5.20922C5.29722 0.599999 5.36522 0.624 5.41322 0.672C5.46122 0.72 5.48522 0.788 5.48522 0.875999V1.32C5.48522 1.4 5.45722 1.464 5.40122 1.512C5.35322 1.56 5.28922 1.584 5.20922 1.584H1.75322L1.53722 3.996C1.92122 3.724 2.43722 3.588 3.08522 3.588C3.62122 3.588 4.10922 3.696 4.54922 3.912C4.98922 4.12 5.33722 4.428 5.59322 4.836C5.85722 5.244 5.98922 5.728 5.98922 6.288C5.98922 6.88 5.85722 7.392 5.59322 7.824C5.33722 8.248 4.97722 8.572 4.51322 8.796C4.05722 9.012 3.53322 9.12 2.94122 9.12Z" fill="white"/>
</svg>
